<svg width="40" height="40" viewBox="0 0 40 40" fill="none" xmlns="http://www.w3.org/2000/svg">
<g clip-path="url(#clip0_4364_71)">
<path d="M5.46063 32.2738L10.3841 0.769397C10.4136 0.581119 10.5015 0.406862 10.6353 0.27124C10.7692 0.135619 10.9423 0.0454863 11.1302 0.0135738C11.3181 -0.0183386 11.5113 0.00958177 11.6824 0.0933914C11.8536 0.177201 11.9941 0.312664 12.0841 0.480647L17.1759 9.97752L19.2053 6.11315C19.2825 5.96657 19.3982 5.84384 19.54 5.75823C19.6819 5.67262 19.8444 5.62738 20.01 5.62738C20.1757 5.62738 20.3382 5.67262 20.48 5.75823C20.6218 5.84384 20.7375 5.96657 20.8147 6.11315L34.5553 32.2738H5.46063Z" fill="#FFA000"/>
<path d="M22.4697 20.0015L17.1734 9.97278L5.46063 32.2737L22.4697 20.0015Z" fill="#F57C00"/>
<path d="M34.5553 32.2737L30.7844 8.93873C30.7564 8.77428 30.6838 8.62067 30.5745 8.49469C30.4651 8.36871 30.3233 8.27519 30.1644 8.22436C30.0055 8.1736 29.8357 8.16757 29.6737 8.20693C29.5116 8.24628 29.3635 8.32951 29.2456 8.44748L5.46063 32.2734L18.6216 39.654C19.028 39.881 19.4858 40.0001 19.9513 40.0001C20.4168 40.0001 20.8745 39.881 21.2809 39.654L34.5553 32.2737Z" fill="#FFCA28"/>
<path d="M30.7844 8.93894C30.7564 8.77449 30.6838 8.62088 30.5745 8.4949C30.4651 8.36892 30.3233 8.2754 30.1644 8.22457C30.0056 8.17377 29.8358 8.16769 29.6737 8.20699C29.5117 8.24629 29.3636 8.32946 29.2456 8.44738L24.5247 13.1808L20.8125 6.11332C20.7354 5.96673 20.6196 5.84401 20.4778 5.7584C20.336 5.67279 20.1735 5.62754 20.0078 5.62754C19.8422 5.62754 19.6797 5.67279 19.5379 5.7584C19.396 5.84401 19.2803 5.96673 19.2031 6.11332L17.1738 9.97738L12.0819 0.480815C11.9918 0.3126 11.851 0.176997 11.6796 0.0932058C11.5081 0.00941516 11.3147 -0.0183157 11.1266 0.0139403C10.9386 0.0460533 10.7654 0.136531 10.6317 0.272547C10.498 0.408564 10.4105 0.583218 10.3816 0.771753L5.46064 32.2739H5.4447L5.46033 32.2921L5.59001 32.3558L29.2388 8.67957C29.3567 8.56111 29.505 8.47745 29.6674 8.43778C29.8298 8.39811 29.9999 8.40396 30.1592 8.45469C30.3185 8.50542 30.4607 8.59907 30.5702 8.72535C30.6797 8.85163 30.7523 9.00566 30.78 9.1705L34.5191 32.2964L34.5553 32.2736L30.7844 8.93894ZM5.50376 32.2308L10.3838 0.994565C10.4128 0.805985 10.5003 0.631302 10.6341 0.495244C10.7679 0.359186 10.941 0.268646 11.1291 0.23644C11.3172 0.20426 11.5107 0.232059 11.6821 0.315903C11.8536 0.399746 11.9943 0.535388 12.0844 0.703628L17.1756 10.2005L19.2053 6.33613C19.2825 6.18955 19.3982 6.06683 19.54 5.98122C19.6819 5.89561 19.8444 5.85036 20.01 5.85036C20.1757 5.85036 20.3382 5.89561 20.48 5.98122C20.6218 6.06683 20.7375 6.18955 20.8147 6.33613L24.4516 13.2533L5.50314 32.2308H5.50376Z" fill="white" fill-opacity="0.2"/>
<path opacity="0.2" d="M21.2809 39.4313C20.8745 39.6582 20.4167 39.7773 19.9512 39.7773C19.4857 39.7773 19.028 39.6582 18.6216 39.4313L5.49187 32.0719L5.45999 32.2741L18.6209 39.6522C19.0274 39.8791 19.4851 39.9983 19.9506 39.9983C20.4161 39.9983 20.8739 39.8791 21.2803 39.6522L34.5553 32.2741L34.5209 32.0647L21.2803 39.4319L21.2809 39.4313Z" fill="#A52714"/>
</g>
<defs>
<clipPath id="clip0_4364_71">
<rect width="40" height="40" fill="white"/>
</clipPath>
</defs>
</svg>
