<svg width="40" height="40" viewBox="0 0 40 40" fill="none" xmlns="http://www.w3.org/2000/svg">
<path d="M38.986 16.0569L38.9306 15.9156L33.5844 1.96311C33.4756 1.68959 33.2829 1.45756 33.0341 1.3003C32.7851 1.14571 32.4948 1.07124 32.2021 1.08694C31.9095 1.10264 31.6288 1.20777 31.3978 1.38811C31.1694 1.57361 31.0038 1.82503 30.9235 2.10811L27.3138 13.1525H12.6966L9.08658 2.10811C9.00826 1.8236 8.84227 1.57102 8.6122 1.38623C8.38124 1.20589 8.10049 1.10077 7.80788 1.08507C7.51527 1.06936 7.22489 1.14383 6.97595 1.29842C6.72772 1.45638 6.53526 1.68819 6.42564 1.96123L1.06939 15.9075L1.01626 16.0487C-0.564673 20.1797 0.777827 24.8587 4.30908 27.5225L4.32751 27.5369L4.37658 27.5715L12.5206 33.6703L16.5497 36.7197L19.0041 38.5728C19.2912 38.7907 19.6417 38.9087 20.0022 38.9087C20.3627 38.9087 20.7132 38.7907 21.0003 38.5728L23.4547 36.7197L27.4838 33.6703L35.6769 27.5347L35.6972 27.5184C39.22 24.854 40.5603 20.1834 38.986 16.0569Z" fill="#E24329"/>
<path d="M38.9859 16.0569L38.9306 15.9156C36.3256 16.4504 33.8708 17.5538 31.7416 19.1472L20 28.0256C23.9984 31.0506 27.4794 33.6788 27.4794 33.6788L35.6725 27.5431L35.6928 27.5269C39.2213 24.8622 40.5634 20.1869 38.9859 16.0569Z" fill="#FC6D26"/>
<path d="M12.5206 33.6784L16.5497 36.7278L19.0041 38.5809C19.2912 38.7988 19.6417 38.9168 20.0022 38.9168C20.3626 38.9168 20.7132 38.7988 21.0003 38.5809L23.4547 36.7278L27.4838 33.6784C27.4838 33.6784 23.9988 31.0421 20.0003 28.0253C17.5055 29.9076 15.0123 31.792 12.5206 33.6784Z" fill="#FCA326"/>
<path d="M8.25627 19.1472C6.12876 17.5507 3.67455 16.4443 1.06939 15.9075L1.01626 16.0487C-0.564673 20.1797 0.777827 24.8587 4.30908 27.5225L4.32751 27.5368L4.37658 27.5715L12.5206 33.6703L20 28.0172L8.25627 19.1472Z" fill="#FC6D26"/>
</svg>
