<svg width="40" height="40" viewBox="0 0 40 40" fill="none" xmlns="http://www.w3.org/2000/svg">
<path d="M27.7156 27.5343C24.9031 33.2843 19.9781 37.1531 13.4625 38.425C12.4635 38.6697 11.4379 38.7894 10.4094 38.7812C6.65937 38.7812 3.22187 37.2187 1.55312 34.6593C-0.687505 31.25 -1.45 24.0218 5.9375 18.675C6.0875 19.4906 6.39375 20.6093 6.59687 21.2718C5.14666 22.3492 3.95961 23.7414 3.125 25.3437C1.75 28.0437 1.90312 30.7406 3.53125 33.2343C4.65625 34.9156 6.4375 35.9375 8.72812 36.25C11.5892 36.6121 14.4917 36.0655 17.025 34.6875C20.9969 32.6 23.6437 30.1062 25.375 26.6968C24.8855 26.1909 24.5957 25.5249 24.5594 24.8218C24.5332 24.0674 24.8074 23.3334 25.3218 22.7809C25.8362 22.2285 26.5488 21.9026 27.3031 21.875H27.4094C28.1431 21.8713 28.8502 22.1498 29.3843 22.6529C29.9184 23.156 30.2386 23.8452 30.2788 24.5778C30.3189 25.3105 30.0759 26.0305 29.6 26.589C29.124 27.1474 28.4516 27.5016 27.7219 27.5781L27.7156 27.5343ZM36.675 21.2218C40.4906 25.5468 40.5937 30.6375 39.1187 33.5906C37.7437 36.2875 34.1187 38.9875 29.2437 38.9875C26.968 38.941 24.7293 38.4027 22.6812 37.4093C23.3969 36.9 24.4125 36.0843 24.9719 35.575C26.5512 36.2592 28.2508 36.6224 29.9719 36.6437C33.1281 36.6437 35.5187 35.1687 36.9437 32.4718C37.8594 30.6906 37.9125 28.6031 37.0469 26.4656C35.9847 23.7762 34.0946 21.4943 31.65 19.95C28.4427 17.7879 24.6617 16.6353 20.7937 16.6406H19.8781C19.6646 17.1338 19.3173 17.5574 18.8754 17.8633C18.4336 18.1693 17.9149 18.3454 17.3781 18.3718H17.2812C16.5388 18.3627 15.8292 18.0645 15.303 17.5406C14.7769 17.0166 14.4758 16.3082 14.4636 15.5658C14.4514 14.8234 14.7291 14.1055 15.2377 13.5645C15.7463 13.0236 16.4457 12.7022 17.1875 12.6687H17.2906C17.8075 12.6691 18.3143 12.8119 18.7553 13.0815C19.1964 13.3511 19.5546 13.737 19.7906 14.1968H20.6062C27.1062 14.1968 32.8125 16.6906 36.675 21.2218ZM10.8156 28.4093C10.7621 27.8904 10.8878 27.3688 11.1719 26.9312C8.32187 21.9937 6.79687 15.7343 9.1375 9.2187C10.8156 4.32183 15.0406 1.01245 19.6219 1.01245C24.5094 1.01245 29.6 5.29058 30.2094 13.5343C29.4469 13.2812 28.3344 12.9093 27.6656 12.7718C27.5 10.075 25.2219 3.3562 19.825 3.4562C17.8906 3.50933 15.0406 4.42495 13.575 6.3062C11.7621 8.55189 10.7074 11.3143 10.5625 14.1968C10.219 18.1492 11.1463 22.1081 13.2094 25.4968C13.3233 25.4552 13.4447 25.4382 13.5656 25.4468H13.6656C14.4215 25.4332 15.1518 25.7203 15.696 26.2451C16.2401 26.7699 16.5535 27.4894 16.5672 28.2453C16.5809 29.0011 16.2937 29.7315 15.7689 30.2756C15.2441 30.8198 14.5246 31.1332 13.7687 31.1468H13.6656C12.9282 31.1442 12.2203 30.8571 11.6893 30.3454C11.1584 29.8336 10.8454 29.1368 10.8156 28.4V28.4093Z" fill="#764ABC"/>
</svg>
